<?xml version="1.0" standalone="no"?>
<!DOCTYPE svg PUBLIC "-//W3C//DTD SVG 20010904//EN"
 "http://www.w3.org/TR/2001/REC-SVG-20010904/DTD/svg10.dtd">
<svg version="1.0" xmlns="http://www.w3.org/2000/svg"
 width="512.000000pt" height="512.000000pt" viewBox="0 0 512.000000 512.000000"
 preserveAspectRatio="xMidYMid meet">
<metadata>
Created by potrace 1.14, written by Peter Selinger 2001-2017
</metadata>
<g transform="translate(0.000000,512.000000) scale(0.100000,-0.100000)"
fill="#000000" stroke="none">
<path d="M2220 5106 c-47 -6 -89 -14 -95 -17 -5 -4 -48 -12 -95 -19 -47 -7
-98 -18 -115 -25 -16 -7 -70 -23 -120 -35 -49 -12 -94 -26 -100 -30 -5 -4 -39
-18 -75 -30 -74 -26 -376 -178 -416 -209 -15 -12 -31 -21 -36 -21 -5 0 -45
-27 -88 -60 -43 -33 -82 -60 -85 -60 -4 0 -16 -11 -27 -25 -11 -14 -26 -25
-34 -25 -18 0 -345 -324 -365 -361 -8 -15 -49 -72 -91 -127 -43 -56 -78 -104
-78 -108 0 -4 -15 -30 -33 -58 -39 -59 -197 -376 -197 -395 0 -6 -9 -30 -19
-51 -10 -22 -29 -79 -41 -127 -12 -49 -28 -101 -35 -118 -7 -16 -18 -68 -25
-115 -7 -47 -16 -89 -20 -95 -38 -52 -39 -772 0 -860 4 -11 16 -63 25 -115 9
-52 20 -99 24 -105 5 -5 16 -43 25 -83 8 -41 22 -88 30 -105 8 -18 24 -60 36
-94 33 -98 175 -368 256 -489 40 -61 103 -145 139 -187 36 -42 65 -80 65 -84
0 -11 223 -233 234 -233 4 0 36 -24 69 -53 68 -58 182 -147 191 -147 2 0 37
-21 78 -48 40 -26 136 -78 213 -115 77 -38 151 -74 165 -81 14 -7 52 -21 85
-31 33 -10 65 -22 71 -26 6 -5 51 -18 100 -30 49 -11 94 -24 99 -29 6 -4 64
-15 130 -25 66 -9 131 -22 144 -29 33 -16 648 -16 682 0 13 7 78 20 143 29 66
10 131 24 145 31 14 8 32 14 40 14 22 0 145 31 156 40 6 4 35 15 65 25 30 10
66 23 80 30 292 141 400 200 481 261 30 22 61 43 69 46 29 11 235 195 330 294
97 102 220 247 220 260 0 4 19 32 43 62 50 65 82 121 175 307 92 184 107 219
127 288 9 32 23 70 31 85 8 15 14 33 14 41 0 20 31 153 41 176 10 23 39 219
39 263 0 17 5 34 10 37 13 8 14 492 1 499 -5 3 -12 43 -16 88 -3 46 -12 112
-20 148 -24 117 -66 284 -74 295 -4 5 -14 33 -21 60 -29 110 -226 505 -295
590 -17 22 -38 51 -45 65 -65 126 -447 503 -611 605 -9 6 -43 28 -76 51 -33
23 -73 48 -89 56 -168 88 -316 159 -367 178 -34 12 -75 27 -92 35 -16 7 -64
21 -105 31 -41 9 -79 20 -85 25 -5 4 -53 15 -105 24 -52 9 -104 20 -115 25
-65 29 -586 40 -765 16z m-523 -1228 c17 -16 23 -32 23 -67 l0 -46 -193 -192
c-246 -246 -224 -241 -384 -81 -108 108 -113 115 -113 154 0 35 5 47 31 68 55
46 91 35 182 -58 l48 -49 147 146 c145 145 147 147 191 147 32 0 51 -6 68 -22z
m1534 1 c12 -12 23 -38 26 -58 4 -30 0 -43 -20 -67 l-25 -29 -641 0 -640 0
-23 23 c-30 29 -32 100 -4 131 19 21 21 21 663 21 641 0 643 0 664 -21z m-714
-319 c33 -12 63 -56 63 -93 0 -15 -13 -38 -31 -56 l-31 -31 -293 0 -293 0 -26
31 c-27 32 -32 62 -16 103 19 51 42 55 331 56 158 0 278 -4 296 -10z m-820
-532 c17 -16 23 -32 23 -67 l0 -45 -190 -190 -190 -191 -48 0 c-49 0 -49 0
-155 109 -100 102 -107 111 -107 149 0 58 30 87 89 87 42 0 50 -4 108 -62 l63
-63 143 142 c78 77 151 146 162 152 27 15 74 6 102 -21z m1506 21 c30 -13 57
-59 57 -94 0 -16 -12 -38 -29 -56 l-29 -29 -635 0 -635 0 -26 31 c-27 32 -32
62 -16 103 21 56 11 55 677 56 420 0 620 -3 636 -11z m-652 -367 c36 -40 37
-77 5 -117 l-24 -30 -288 -3 c-197 -2 -296 1 -315 8 -60 25 -64 122 -6 159 31
20 43 21 315 19 l284 -3 29 -33z m1112 -60 c111 -55 171 -144 191 -282 l11
-78 47 43 c80 72 127 90 238 90 80 0 103 -4 142 -23 157 -78 257 -252 246
-424 -9 -132 -72 -224 -194 -284 l-74 -37 32 -16 c54 -26 127 -106 161 -179
28 -59 32 -77 32 -152 0 -77 -4 -92 -37 -163 -87 -182 -284 -292 -445 -248
-59 16 -152 82 -193 136 l-35 47 -8 -34 c-34 -141 -71 -209 -145 -265 -101
-77 -265 -84 -398 -18 -90 44 -162 113 -201 192 -24 50 -28 70 -28 144 0 80 3
91 40 165 l40 80 -95 -1 c-88 0 -101 3 -162 33 -117 58 -186 169 -195 317 -9
142 37 267 129 350 73 66 142 88 253 82 50 -2 98 -7 107 -12 15 -6 14 2 -9 51
-74 162 -22 342 127 447 82 57 156 78 266 74 79 -2 100 -7 157 -35z m-1966
-444 c18 -16 23 -32 23 -68 l0 -46 -193 -192 c-191 -190 -194 -192 -237 -192
-42 0 -47 4 -152 108 -101 102 -108 112 -108 148 0 48 19 77 60 94 42 17 73 2
144 -69 l57 -58 147 148 c145 146 148 148 191 149 32 0 51 -6 68 -22z m857 -9
c33 -38 33 -79 2 -116 l-24 -28 -288 -3 c-198 -2 -296 1 -315 8 -54 23 -64
116 -16 152 20 16 53 18 319 18 l296 0 26 -31z m-193 -319 c26 -15 52 -68 45
-94 -3 -13 -15 -35 -27 -49 l-20 -27 -214 0 -213 0 -27 32 c-23 27 -26 39 -22
72 10 73 20 76 254 76 121 0 212 -4 224 -10z"/>
<path d="M3576 1939 c-66 -10 -134 -55 -173 -113 -42 -62 -56 -116 -50 -191 8
-106 66 -187 166 -233 45 -21 64 -24 126 -20 157 10 261 124 259 283 -1 83
-20 130 -75 190 -63 68 -156 99 -253 84z"/>
</g>
</svg>
